:SAMPLES-PER-SECOND 30
:FULLY-SPECIFIED
:DEGREES
1194
root  -39.462 39.7285 0.509523 -111.176 -87.4175 122.512
RightUpLeg  -35.9784 -21.7414 5.3151
RightLeg  21.6866 -1.33627 -0.808928
RightFoot  1.6336 0.613026 -5.28465
RightToes  2.91037e-010 0 -3.6325e-017
Spine  67.1537 -5.57353 7.56116
Spine1  8.28302 2.3761 -9.77926
HEad  -47.7083 -7.84565 4.27182
LeftShoulder1  9.55316 -29.8205 -22.0434
LeftArm  -17.6824 -55.7073 -27.7296
LeftForeArm  42.9493 -2.77221 -5.78565
LeftHand  -0.244104 0.0205437 5.32207
RightShoulder  4.75981 16.6603 16.931
RightArm  -12.2596 59.8265 28.307
RightForeArm  24.807 5.60828 7.33544
RightHand  -0.402332 -1.75681 -12.7107
LeftUpLeg  -33.5722 20.279 -10.2364
LeftLeg  19.8776 4.03141 1.94881
LeftFoot  0.627586 -0.659494 6.24821
LeftToes  -1.10052e-010 1.3781e-010 -2.1811e-011
1195
root  -39.5869 39.9348 0.486315 -112.147 -87.5199 120.999
RightUpLeg  -32.031 -22.4002 4.1872
RightLeg  20.3524 -1.16793 -0.578636
RightFoot  1.49621 0.544427 -4.7418
RightToes  2.91037e-010 0 -3.6325e-017
Spine  65.7028 -5.79081 7.27868
Spine1  8.22146 1.9001 -10.285
HEad  -48.5549 -6.89147 4.37836
LeftShoulder1  9.66791 -28.1232 -24.1025
LeftArm  -12.793 -48.9128 -31.4135
LeftForeArm  43.5119 -2.86986 -6.53095
LeftHand  -0.244104 0.0205437 5.32207
RightShoulder  5.43221 16.909 20.1595
RightArm  -5.99114 54.4007 34.0361
RightForeArm  23.2514 5.4092 8.16041
RightHand  -0.509533 -1.11081 -13.7215
LeftUpLeg  -29.6197 20.7239 -8.98035
LeftLeg  18.367 3.98633 1.78557
LeftFoot  0.704687 -0.591233 5.55718
LeftToes  -1.10052e-010 1.3781e-010 -2.1811e-011
1196
root  -39.772 40.1039 0.459665 -112.249 -87.6944 118.856
RightUpLeg  -28.1349 -22.1133 2.67163
RightLeg  19.1191 -1.90974 -0.301171
RightFoot  1.22852 0.466654 -4.15622
RightToes  2.91037e-010 0 -3.6325e-017
Spine  64.3867 -5.27532 6.87484
Spine1  7.10723 1.56995 -9.16084
HEad  -48.8221 -6.09847 3.41872
LeftShoulder1  10.2006 -26.222 -28.0178
LeftArm  -8.63227 -42.1789 -33.2438
LeftForeArm  45.3161 -2.65065 -7.43072
LeftHand  -0.244104 0.0205437 5.32207
RightShoulder  6.0073 16.9306 23.1339
RightArm  -1.97859 47.8132 36.6853
RightForeArm  21.7828 5.01139 8.83002
RightHand  -0.747486 0.161083 -15.6531
LeftUpLeg  -25.9631 20.585 -7.5115
LeftLeg  17.2668 4.41916 1.66388
LeftFoot  0.487359 -0.508129 4.87307
LeftToes  -1.10052e-010 1.3781e-010 -2.1811e-011
1197
root  -39.9983 40.2501 0.435342 -110.337 -87.8393 114.796
RightUpLeg  -24.3577 -21.175 0.99097
RightLeg  18.1123 -3.2494 -0.0980443
RightFoot  0.926742 0.402248 -3.68047
RightToes  2.91037e-010 0 -3.6325e-017
Spine  61.6289 -3.57706 6.51428
Spine1  8.14205 1.97224 -5.7695
HEad  -49.8876 -6.07463 1.47772
LeftShoulder1  11.215 -25.1523 -32.9176
LeftArm  -7.35004 -36.658 -33.3556
LeftForeArm  46.3051 -2.23954 -7.65609
LeftHand  -0.244104 0.0205437 5.32207
RightShoulder  5.8259 15.9608 23.7102
RightArm  -1.36761 40.9819 37.6999
RightForeArm  20.0902 5.19501 8.70141
RightHand  -1.05113 1.42794 -17.9437
LeftUpLeg  -22.3874 19.669 -5.92922
LeftLeg  16.3917 5.4994 1.55911
LeftFoot  0.177452 -0.439588 4.34632
LeftToes  -1.10052e-010 1.3781e-010 -2.1811e-011
1198
root  -40.2597 40.3839 0.423006 -105.889 -87.9213 108.387
RightUpLeg  -20.9842 -20.3431 -0.492845
RightLeg  17.422 -4.46351 0.012718
RightFoot  0.588848 0.357388 -3.3789
RightToes  2.91037e-010 0 -3.6325e-017
Spine  59.8954 -3.51872 6.51106
Spine1  6.57262 1.86445 -6.08895
HEad  -49.6054 -5.09666 1.497
LeftShoulder1  11.2733 -23.9138 -34.921
LeftArm  -7.62177 -28.8176 -33.1327
LeftForeArm  44.9049 -3.05796 -7.16706
LeftHand  -0.244104 0.0205437 5.32207
RightShoulder  6.40318 15.6404 27.3791
RightArm  -1.73222 33.1178 37.0395
RightForeArm  17.8538 6.15329 8.51233
RightHand  -1.45637 2.87772 -20.4714
LeftUpLeg  -19.0096 18.3606 -4.5422
LeftLeg  15.5473 6.82168 1.41534
LeftFoot  -0.0989662 -0.388009 3.94725
LeftToes  -1.10052e-010 1.3781e-010 -2.1811e-011
1199
root  -40.5734 40.4994 0.422854 -100.883 -88.0659 101.935
RightUpLeg  -18.2443 -19.7495 -1.53553
RightLeg  16.7935 -5.34788 0.167116
RightFoot  0.271232 0.327323 -3.19802
RightToes  2.91037e-010 0 -3.6325e-017
Spine  57.0469 -2.83035 6.09426
Spine1  6.04292 1.74893 -4.86398
HEad  -49.7027 -4.50091 0.868169
LeftShoulder1  11.5063 -22.5449 -37.919
LeftArm  -9.14761 -21.7688 -31.2079
LeftForeArm  41.7644 -4.3509 -6.4874
LeftHand  -0.244104 0.0205437 5.32207
RightShoulder  6.54616 15.2422 28.9006
RightArm  -3.36353 25.5359 36.4628
RightForeArm  15.2839 7.17583 8.01587
RightHand  -1.97045 4.73627 -22.6027
LeftUpLeg  -16.2922 17.1023 -3.39457
LeftLeg  14.8573 7.98846 1.21172
LeftFoot  -0.433668 -0.335165 3.53644
LeftToes  -1.10052e-010 1.3781e-010 -2.1811e-011
1200
root  -40.942 40.5981 0.432068 -98.2789 -88.4785 98.2476
RightUpLeg  -15.77 -18.929 -2.1024
RightLeg  15.9494 -6.3053 0.388994
RightFoot  0.0726204 0.30829 -3.0773
RightToes  2.91037e-010 0 -3.6325e-017
Spine  53.6377 -2.38515 5.91097
Spine1  5.78449 1.71091 -4.25304
HEad  -49.5395 -4.08799 0.505616
LeftShoulder1  11.3695 -21.2641 -39.5959
LeftArm  -11.0954 -15.1391 -29.2954
LeftForeArm  38.4603 -5.42484 -5.64985
LeftHand  -0.244104 0.0205437 5.32207
RightShoulder  6.58705 14.6557 30.2875
RightArm  -5.0759 18.563 35.3637
RightForeArm  12.6468 8.14489 7.57401
RightHand  -2.39419 6.26111 -23.8386
LeftUpLeg  -14.1703 16.4377 -2.25664
LeftLeg  14.5385 8.54598 1.04643
LeftFoot  -0.930776 -0.275351 3.08314
LeftToes  -1.10052e-010 1.3781e-010 -2.1811e-011
1201
root  -41.3382 40.6924 0.451252 -98.0459 -89.1273 96.6751
RightUpLeg  -12.9037 -17.724 -2.44863
RightLeg  14.9532 -7.56763 0.576387
RightFoot  -0.0522095 0.29307 -2.96624
RightToes  2.91037e-010 0 -3.6325e-017
Spine  50.4941 -2.22269 6.06257
Spine1  5.5026 1.75285 -4.25198
HEad  -48.7131 -3.66003 0.418624
LeftShoulder1  10.937 -20.1813 -39.8773
LeftArm  -13.3707 -8.95448 -27.801
LeftForeArm  36.4455 -6.17448 -4.65379
LeftHand  -0.244104 0.0205437 5.32207
RightShoulder  6.50862 13.9488 31.3223
RightArm  -6.95505 12.036 33.9958
RightForeArm  10.7273 9.00776 7.06081
RightHand  -2.57255 6.87974 -24.302
LeftUpLeg  -11.8746 16.3072 -0.909026
LeftLeg  14.4556 8.59317 0.931497
LeftFoot  -1.49779 -0.226185 2.73232
LeftToes  -1.10052e-010 1.3781e-010 -2.1811e-011
1202
root  -41.7403 40.7822 0.479536 -97.4276 -89.5792 94.5209
RightUpLeg  -9.97125 -16.6401 -2.91021
RightLeg  14.1872 -8.65577 0.672236
RightFoot  -0.29515 0.271908 -2.83018
RightToes  2.91037e-010 0 -3.6325e-017
Spine  47.6744 -1.86647 5.91896
Spine1  5.14679 1.74061 -3.78522
HEad  -47.2855 -3.31168 0.253697
LeftShoulder1  10.4877 -19.1661 -39.9751
LeftArm  -15.6163 -3.52774 -25.9867
LeftForeArm  35.7523 -6.95686 -3.69186
LeftHand  -0.244104 0.0205437 5.32207
RightShoulder  6.24916 13.2246 31.3917
RightArm  -10.1877 5.89595 32.6542
RightForeArm  10.7242 9.44902 6.15273
RightHand  -2.5343 6.81993 -24.0622
LeftUpLeg  -9.25178 16.0458 0.301547
LeftLeg  14.1797 8.79184 0.743103
LeftFoot  -1.93451 -0.203846 2.62025
LeftToes  -1.10052e-010 1.3781e-010 -2.1811e-011
1203
root  -42.1525 40.8554 0.514373 -98.314 -89.4022 94.6044
RightUpLeg  -8.23853 -16.1888 -3.62596
RightLeg  14.0104 -8.93623 0.67272
RightFoot  -0.782548 0.241257 -2.66601
RightToes  2.91037e-010 0 -3.6325e-017
Spine  44.1717 -1.14702 5.05057
Spine1  4.86529 1.6476 -2.89617
HEad  -45.5967 -3.14469 -0.0358803
LeftShoulder1  9.99625 -18.1269 -39.9392
LeftArm  -17.5703 0.902607 -23.5874
LeftForeArm  35.1264 -7.65163 -2.85377
LeftHand  -0.244104 0.0205437 5.32207
RightShoulder  5.86678 12.3668 31.0069
RightArm  -15.4213 0.378315 31.1308
RightForeArm  11.6738 9.45115 4.75134
RightHand  -2.35348 6.47048 -23.0378
LeftUpLeg  -7.2038 15.2136 0.685342
LeftLeg  13.4403 9.68068 0.400648
LeftFoot  -2.14367 -0.204125 2.70077
LeftToes  -1.10052e-010 1.3781e-010 -2.1811e-011
1204
root  -42.577 40.9118 0.557327 -102.991 -88.7246 99.5187
RightUpLeg  -7.95431 -16.1952 -4.47798
RightLeg  14.2923 -8.58629 0.632512
RightFoot  -1.42803 0.203796 -2.4594
RightToes  2.91037e-010 0 -3.6325e-017
Spine  39.6054 -0.38341 3.76783
Spine1  4.71739 1.5413 -2.30963
HEad  -44.0342 -3.26206 -0.514379
LeftShoulder1  9.37973 -17.1287 -39.2334
LeftArm  -19.4712 4.52041 -20.8622
LeftForeArm  33.5273 -7.9818 -2.01199
LeftHand  -0.244104 0.0205437 5.32207
RightShoulder  5.43629 11.3631 30.6067
RightArm  -21.5666 -4.42273 29.3211
RightForeArm  9.69754 9.4426 3.29247
RightHand  -2.15418 6.07004 -21.8752
LeftUpLeg  -6.13437 13.8866 0.264194
LeftLeg  12.3534 11.2374 -0.0581468
LeftFoot  -2.21377 -0.210074 2.8035
LeftToes  -1.10052e-010 1.3781e-010 -2.1811e-011
1205
root  -42.9955 40.9686 0.609211 -105.094 -88.1533 101.89
RightUpLeg  -7.58926 -16.0144 -5.27522
RightLeg  14.3641 -8.46087 0.688257
RightFoot  -2.00146 0.163933 -2.17167
RightToes  2.91037e-010 0 -3.6325e-017
Spine  35.1719 0.029454 2.58888
Spine1  4.66275 1.34466 -2.08517
HEad  -42.7172 -3.17121 -1.18665
LeftShoulder1  8.61786 -16.1812 -37.6235
LeftArm  -21.5581 7.79807 -18.2919
LeftForeArm  31.2613 -8.34409 -1.09157
LeftHand  -0.244104 0.0205437 5.32207
RightShoulder  4.94072 10.388 29.587
RightArm  -26.8052 -8.1869 27.6417
RightForeArm  3.11282 9.25965 2.31021
RightHand  -2.13548 6.08637 -21.6558
LeftUpLeg  -5.08779 12.3737 -0.08838
LeftLeg  11.1967 12.9672 -0.565642
LeftFoot  -2.30762 -0.209365 2.82596
LeftToes  -1.10052e-010 1.3781e-010 -2.1811e-011
1206
root  -43.393 41.0388 0.66266 -106.417 -88.0681 102.688
RightUpLeg  -5.95433 -15.3031 -5.91258
RightLeg  13.7372 -9.00712 0.926347
RightFoot  -2.34186 0.128522 -1.83473
RightToes  2.91037e-010 0 -3.6325e-017
Spine  31.9636 0.0396707 1.68452
Spine1  4.55812 0.956935 -1.83716
HEad  -41.4838 -2.58905 -1.83023
LeftShoulder1  7.74335 -15.222 -35.2777
LeftArm  -23.3742 11.0026 -16.1034
LeftForeArm  29.3024 -9.22667 -0.301197
LeftHand  -0.244104 0.0205437 5.32207
RightShoulder  4.38614 9.55651 27.5634
RightArm  -30.186 -10.5243 26.1364
RightForeArm  -3.59433 8.34753 1.61243
RightHand  -2.27756 6.68282 -21.9582
LeftUpLeg  -3.24735 10.9014 0.173503
LeftLeg  10.0961 14.4705 -1.10623
LeftFoot  -2.49387 -0.200847 2.79055
LeftToes  -1.10052e-010 1.3781e-010 -2.1811e-011
1207
root  -43.7788 41.1138 0.710563 -108.153 -88.2468 103.576
RightUpLeg  -3.75424 -14.293 -6.34442
RightLeg  12.65 -9.88274 1.27017
RightFoot  -2.47404 0.104121 -1.55907
RightToes  2.91037e-010 0 -3.6325e-017
Spine  29.4219 -0.0460643 0.987233
Spine1  4.25428 0.579235 -1.52942
HEad  -39.9407 -2.10462 -2.28471
LeftShoulder1  6.97631 -14.3999 -32.9216
LeftArm  -24.0996 13.7689 -13.6208
LeftForeArm  27.9532 -10.1695 0.113193
LeftHand  -0.244104 0.0205437 5.32207
RightShoulder  3.87498 8.8223 25.3343
RightArm  -31.8943 -11.8721 23.9356
RightForeArm  -5.97473 7.06063 0.887275
RightHand  -2.22929 6.72162 -21.4296
LeftUpLeg  -1.09448 9.46477 0.700312
LeftLeg  8.97285 15.8156 -1.69692
LeftFoot  -2.70252 -0.190922 2.74363
LeftToes  -1.10052e-010 1.3781e-010 -2.1811e-011
1208
root  -44.167 41.1822 0.758704 -111.669 -88.3299 106.672
RightUpLeg  -2.12244 -13.3443 -6.63215
RightLeg  11.625 -10.6117 1.5665
RightFoot  -2.52954 0.087693 -1.36046
RightToes  2.91037e-010 0 -3.6325e-017
Spine  26.5192 -0.0476483 0.499222
Spine1  4.11285 0.443079 -1.53192
HEad  -38.1756 -2.0504 -2.47806
LeftShoulder1  6.16084 -13.447 -30.2879
LeftArm  -24.0231 15.3125 -11.1398
LeftForeArm  27.0305 -10.5707 0.258716
LeftHand  -0.244104 0.0205437 5.32207
RightShoulder  3.33836 7.78261 23.3804
RightArm  -32.4213 -12.6634 21.0383
RightForeArm  -5.45584 6.4244 0.383988
RightHand  -1.95681 5.76124 -20.4697
LeftUpLeg  0.622064 8.00983 0.972908
LeftLeg  7.71353 17.2371 -2.3094
LeftFoot  -2.82133 -0.184099 2.70049
LeftToes  -1.10052e-010 1.3781e-010 -2.1811e-011
